# xmcd
#
# Track frame offsets:
# 150
# 13205
# 27751
# 42887
# 57243
# 68413
# 81196
# 97241
# 114014
#
# Disc length: 1732 seconds
#
# Revision: 0
# Processed by: cddbd v1.5.1PL0 Copyright (c) Steve Scherf et al.
# Submitted via: Axialis_AX_CDPlayer 2.6
#
DISCID=6806c209
DTITLE=Waylon Jennings, Mel Tillis, Bobby Bare, Jerry Reed - Old Dogs, CD 2
DYEAR=1900
DGENRE=
TTITLE0=Elvis has left the building
TTITLE1=Wait until tomorrow
TTITLE2=I never expected
TTITLE3=Ever loving machine
TTITLE4=Slap my face
TTITLE5=Rough on the living
TTITLE6=Alimony
TTITLE7=Still gonna die
TTITLE8=Time
EXTD=
EXTT0=
EXTT1=
EXTT2=
EXTT3=
EXTT4=
EXTT5=
EXTT6=
EXTT7=
EXTT8=
PLAYORDER=
